# xmcd CD database file
#
# Track frame offsets:
#	150
#	16904
#	28047
#	38902
#	55265
#	70744
#	95167
#	108542
#	117703
#	127710
#	140517
#	154389
#	177313
#	197600
#	218004
#	231083
#	244585
#	265793
#	296336
#
# Disc length: 4069 seconds
#
# Revision: 0
# Processed by: cddbd v1.5.2PL0 Copyright (c) Steve Scherf et al.
# Submitted via: CDex 1.51
#
DISCID=110fe313
DTITLE=The Puppini Sisters - Willkommen,Bienvenue,Welcome
DYEAR=2006
DGENRE=Jazz
TTITLE0=The Puppini Sisters - Bei Mir Bist Du Schön
TTITLE1=The Puppini Sisters - Jeepers Creepers
TTITLE2=The Puppini Sisters - Panic
TTITLE3=The Puppini Sisters - Sway
TTITLE4=The Puppini Sisters - Heebie Jeebies
TTITLE5=The Puppini Sisters - Libertango
TTITLE6=The Puppini Sisters - Hold Tight
TTITLE7=The Puppini Sisters - Tu Vo Fa L'Americano Recitativ
TTITLE8=The Puppini Sisters - Tu Vo Fa L'Americano
TTITLE9=The Puppini Sisters - Mr Sandman
TTITLE10=The Puppini Sisters - Wuthering Heights
TTITLE11=The Puppini Sisters - Java Jive
TTITLE12=The Puppini Sisters - Right Key
TTITLE13=The Puppini Sisters - In The Mood
TTITLE14=The Puppini Sisters - Heart Of Glass
TTITLE15=The Puppini Sisters - Jingle Bells
TTITLE16=The Puppini Sisters - Boogie Woogie Bugle Boy (of Co
TTITLE17=The Puppini Sisters - I Will Survive
TTITLE18=The Puppini Sisters - Falling In Love Again
EXTD=YEAR: 2006
EXTT0=
EXTT1=
EXTT2=
EXTT3=
EXTT4=
EXTT5=
EXTT6=
EXTT7=
EXTT8=
EXTT9=
EXTT10=
EXTT11=
EXTT12=
EXTT13=
EXTT14=
EXTT15=
EXTT16=
EXTT17=
EXTT18=
PLAYORDER=
